<svg width="32" height="30" viewBox="0 0 32 30" fill="none" 
xmlns="http://www.w3.org/2000/svg">
<mask id="path-1-inside-1_1778_309" fill="white">
<path d="M4.40506 18.7577C4.45601 18.8074 4.51645 18.8467 4.58289 18.8733C4.64933
 18.9 4.72048 18.9135 4.79225 18.9131H27.1515C27.2232 18.9135 27.2944 18.9 27.3608 
 18.8733C27.4273 18.8467 27.4877 18.8074 27.5387 18.7577L29.72 16.6145C29.7969 16.5396 
 29.8494 16.4438 29.8707 16.3395C29.892 16.2351 29.8812 16.1269 29.8397 16.0286C29.7981 
 15.9303 29.7277 15.8464 29.6375 15.7876C29.5472 15.7288 29.4412 15.6977 29.3328 15.6983
 H27.4241V14.6267C27.4205 11.9581 26.4517 9.37758 24.6905 7.34595C22.9294 5.31432 20.4906 
 3.96381 17.8097 3.53557L18.006 1.96031C18.0339 1.7336 18.0123 1.50366 17.9427 1.2858C17.
 873 1.06794 17.757 0.867151 17.6022 0.696815C17.4474 0.526478 17.2574 0.390501 17.0449 0.
 297939C16.8325 0.205378 16.6024 0.158357 16.37 0.160008H15.5519C15.3195 0.158357 15.0894 
 0.205378 14.877 0.297939C14.6645 0.390501 14.4745 0.526478 14.3197 0.696815C14.1649 
 0.867151 14.0489 1.06794 13.9792 1.2858C13.9096 1.50366 13.888 1.7336 13.9159 1.96031L14.1122 3.53557C11.4353 3.96839 9.00163 5.32087 7.24487 7.35205C5.48811 9.38323 4.52233 11.9612 4.51958 14.6267V15.6983H2.61087C2.50255 15.6977 2.39649 15.7288 2.30623 15.7876C2.21596 15.8464 2.14557 15.9303 2.10404 16.0286C2.0625 16.1269 2.05169 16.2351 2.073 16.3395C2.09431 16.4438 2.14676 16.5396 2.22367 16.6145L4.40506 18.7577ZM15.023 1.83171C15.0137 1.75615 15.0208 1.6795 15.0441 1.60688C15.0673 1.53426 15.106 1.46733 15.1576 1.41055C15.2092 1.35377 15.2725 1.30844 15.3433 1.27759C15.4141 1.24674 15.4908 1.23106 15.5683 1.23161H16.3863C16.4638 1.23106 16.5405 1.24674 16.6113 1.27759C16.6821 1.30844 16.7455 1.35377 16.7971 1.41055C16.8487 1.46733 16.8873 1.53426 16.9106 1.60688C16.9338 1.6795 16.941 1.75615 16.9317 1.83171L16.7408 3.43912C16.2366 3.39091 15.7289 3.39091 15.2247 3.43912L15.023 1.83171ZM5.61027 14.6267C5.61027 11.9267 6.70194 9.33733 8.64511 7.42816C10.5883 5.51899 13.2238 4.44643 15.9719 4.44643C18.7199 4.44643 21.3554 5.51899 23.2986 7.42816C25.2418 9.33733 26.3334 11.9267 26.3334 14.6267V15.6983H5.61027V14.6267ZM28.0186 16.7699L26.9279 17.8415H5.01584L3.92515 16.7699H28.0186Z"/>
</mask>
<path d="M4.40506 18.7577C4.45601 18.8074 4.51645 18.8467 4.58289 18.8733C4.64933 18.9 4.72048 18.9135 4.79225 18.9131H27.1515C27.2232 18.9135 27.2944 18.9 27.3608 18.8733C27.4273 18.8467 27.4877 18.8074 27.5387 18.7577L29.72 16.6145C29.7969 16.5396 29.8494 16.4438 29.8707 16.3395C29.892 16.2351 29.8812 16.1269 29.8397 16.0286C29.7981 15.9303 29.7277 15.8464 29.6375 15.7876C29.5472 15.7288 29.4412 15.6977 29.3328 15.6983H27.4241V14.6267C27.4205 11.9581 26.4517 9.37758 24.6905 7.34595C22.9294 5.31432 20.4906 3.96381 17.8097 3.53557L18.006 1.96031C18.0339 1.7336 18.0123 1.50366 17.9427 1.2858C17.873 1.06794 17.757 0.867151 17.6022 0.696815C17.4474 0.526478 17.2574 0.390501 17.0449 0.297939C16.8325 0.205378 16.6024 0.158357 16.37 0.160008H15.5519C15.3195 0.158357 15.0894 0.205378 14.877 0.297939C14.6645 0.390501 14.4745 0.526478 14.3197 0.696815C14.1649 0.867151 14.0489 1.06794 13.9792 1.2858C13.9096 1.50366 13.888 1.7336 13.9159 1.96031L14.1122 3.53557C11.4353 3.96839 9.00163 5.32087 7.24487 7.35205C5.48811 9.38323 4.52233 11.9612 4.51958 14.6267V15.6983H2.61087C2.50255 15.6977 2.39649 15.7288 2.30623 15.7876C2.21596 15.8464 2.14557 15.9303 2.10404 16.0286C2.0625 16.1269 2.05169 16.2351 2.073 16.3395C2.09431 16.4438 2.14676 16.5396 2.22367 16.6145L4.40506 18.7577ZM15.023 1.83171C15.0137 1.75615 15.0208 1.6795 15.0441 1.60688C15.0673 1.53426 15.106 1.46733 15.1576 1.41055C15.2092 1.35377 15.2725 1.30844 15.3433 1.27759C15.4141 1.24674 15.4908 1.23106 15.5683 1.23161H16.3863C16.4638 1.23106 16.5405 1.24674 16.6113 1.27759C16.6821 1.30844 16.7455 1.35377 16.7971 1.41055C16.8487 1.46733 16.8873 1.53426 16.9106 1.60688C16.9338 1.6795 16.941 1.75615 16.9317 1.83171L16.7408 3.43912C16.2366 3.39091 15.7289 3.39091 15.2247 3.43912L15.023 1.83171ZM5.61027 14.6267C5.61027 11.9267 6.70194 9.33733 8.64511 7.42816C10.5883 5.51899 13.2238 4.44643 15.9719 4.44643C18.7199 4.44643 21.3554 5.51899 23.2986 7.42816C25.2418 9.33733 26.3334 11.9267 26.3334 14.6267V15.6983H5.61027V14.6267ZM28.0186 16.7699L26.9279 17.8415H5.01584L3.92515 16.7699H28.0186Z" fill="#FFBA08"/>
<path d="M4.40506 18.7577L3.00337 20.1844L3.00921 20.1901L4.40506 18.7577ZM4.79225 18.9131V16.9131L4.78089 16.9131L4.79225 18.9131ZM27.1515 18.9131L27.1628 16.9131H27.1515V18.9131ZM27.5387 18.7577L28.9345 20.1901L28.9403 20.1844L27.5387 18.7577ZM29.72 16.6145L28.3242 15.1821L28.3184 15.1879L29.72 16.6145ZM29.3328 15.6983V17.6983L29.3443 17.6983L29.3328 15.6983ZM27.4241 15.6983H25.4241V17.6983H27.4241V15.6983ZM27.4241 14.6267H29.4241L29.4241 14.624L27.4241 14.6267ZM17.8097 3.53557L15.825 3.28822L15.586 5.20573L17.4942 5.51053L17.8097 3.53557ZM18.006 1.96031L19.9906 2.20765L19.991 2.20457L18.006 1.96031ZM16.37 0.160008V2.16001H16.3771L16.3842 2.15996L16.37 0.160008ZM15.5519 0.160008L15.5377 2.15996L15.5448 2.16001H15.5519V0.160008ZM13.9159 1.96031L11.9309 2.20457L11.9313 2.20765L13.9159 1.96031ZM14.1122 3.53557L14.4314 5.50993L16.3354 5.20209L16.0969 3.28822L14.1122 3.53557ZM4.51958 14.6267L2.51958 14.6246V14.6267H4.51958ZM4.51958 15.6983V17.6983H6.51958V15.6983H4.51958ZM2.61087 15.6983L2.59944 17.6983H2.61087V15.6983ZM2.22367 16.6145L3.62536 15.1879L3.61945 15.1821L2.22367 16.6145ZM15.023 1.83171L13.0379 2.07598L13.0385 2.08082L15.023 1.83171ZM15.5683 1.23161L15.5541 3.23156L15.5612 3.23161H15.5683V1.23161ZM16.3863 1.23161V3.23161H16.3934L16.4005 3.23156L16.3863 1.23161ZM16.9317 1.83171L14.9466 1.58745L14.9456 1.59588L16.9317 1.83171ZM16.7408 3.43912L16.5504 5.43004L18.4963 5.61611L18.7268 3.67495L16.7408 3.43912ZM15.2247 3.43912L13.2403 3.68823L13.4822 5.61487L15.4151 5.43004L15.2247 3.43912ZM5.61027 14.6267H3.61027H5.61027ZM15.9719 4.44643V2.44643V4.44643ZM26.3334 15.6983V17.6983H28.3334V15.6983H26.3334ZM5.61027 15.6983H3.61027V17.6983H5.61027V15.6983ZM28.0186 16.7699L29.4202 18.1965L32.9079 14.7699H28.0186V16.7699ZM26.9279 17.8415V19.8415H27.746L28.3295 19.2681L26.9279 17.8415ZM5.01584 17.8415L3.61417 19.2681L4.19774 19.8415H5.01584V17.8415ZM3.92515 16.7699V14.7699H-0.964198L2.52347 18.1965L3.92515 16.7699ZM3.00921 20.1901C3.24857 20.4233 3.53053 20.6061 3.83802 20.7295L5.32776 17.0172C5.50236 17.0873 5.66345 17.1914 5.80091 17.3254L3.00921 20.1901ZM3.83802 20.7295C4.14545 20.8528 4.47348 20.915 4.80361 20.9131L4.78089 16.9131C4.96748 16.9121 5.15322 16.9472 5.32776 17.0172L3.83802 20.7295ZM4.79225 20.9131H27.1515V16.9131H4.79225V20.9131ZM27.1401 20.9131C27.4702 20.915 27.7983 20.8528 28.1057 20.7295L26.616 17.0172C26.7905 16.9472 26.9762 16.9121 27.1628 16.9131L27.1401 20.9131ZM28.1057 20.7295C28.4132 20.6061 28.6951 20.4233 28.9345 20.1901L26.1428 17.3254C26.2802 17.1914 26.4413 17.0873 26.616 17.0172L28.1057 20.7295ZM28.9403 20.1844L31.1217 18.0412L28.3184 15.1879L26.137 17.3311L28.9403 20.1844ZM31.1158 18.0469C31.4773 17.6947 31.728 17.2403 31.8303 16.7396L27.9111 15.9394C27.9708 15.6474 28.1166 15.3845 28.3243 15.1821L31.1158 18.0469ZM31.8303 16.7396C31.9326 16.2387 31.8804 15.7196 31.6819 15.2501L27.9974 16.8072C27.8821 16.5342 27.8515 16.2315 27.9111 15.9394L31.8303 16.7396ZM31.6819 15.2501C31.4837 14.7809 31.1502 14.3862 30.7295 14.1121L28.5454 17.4631C28.3053 17.3066 28.1126 17.0797 27.9974 16.8072L31.6819 15.2501ZM30.7295 14.1121C30.3093 13.8382 29.8192 13.6955 29.3214 13.6983L29.3443 17.6983C29.0632 17.6999 28.7852 17.6194 28.5454 17.4631L30.7295 14.1121ZM29.3328 13.6983H27.4241V17.6983H29.3328V13.6983ZM29.4241 15.6983V14.6267H25.4241V15.6983H29.4241ZM29.4241 14.624C29.4199 11.4711 28.2749 8.42749 26.2018 6.03592L23.1793 8.65598C24.6284 10.3277 25.4212 12.4451 25.4241 14.6294L29.4241 14.624ZM26.2018 6.03592C24.1293 3.64518 21.2655 2.06223 18.1251 1.5606L17.4942 5.51053C19.7157 5.86539 21.7295 6.98345 23.1793 8.65598L26.2018 6.03592ZM19.7943 3.78291L19.9906 2.20765L16.0214 1.71296L15.825 3.28822L19.7943 3.78291ZM19.991 2.20457C20.0543 1.69065 20.0052 1.16967 19.8477 0.676918L16.0376 1.89468C16.0194 1.83766 16.0135 1.77655 16.021 1.71604L19.991 2.20457ZM19.8477 0.676918C19.6903 0.184264 19.4286 -0.267198 19.0823 -0.648263L16.122 2.04189C16.0853 2.0015 16.0558 1.95161 16.0376 1.89468L19.8477 0.676918ZM19.0823 -0.648263C18.7361 -1.02922 18.3134 -1.331 17.8437 -1.53562L16.2462 2.1315C16.2014 2.112 16.1587 2.08218 16.122 2.04189L19.0823 -0.648263ZM17.8437 -1.53562C17.3741 -1.74021 16.867 -1.84357 16.3558 -1.83994L16.3842 2.15996C16.3378 2.16029 16.2908 2.15096 16.2462 2.1315L17.8437 -1.53562ZM16.37 -1.83999H15.5519V2.16001H16.37V-1.83999ZM15.5661 -1.83994C15.0549 -1.84357 14.5478 -1.7402 14.0782 -1.53562L15.6757 2.1315C15.6311 2.15096 15.5841 2.16029 15.5377 2.15996L15.5661 -1.83994ZM14.0782 -1.53562C13.6085 -1.331 13.1858 -1.02922 12.8396 -0.648263L15.7999 2.04189C15.7632 2.08218 15.7205 2.112 15.6757 2.1315L14.0782 -1.53562ZM12.8396 -0.648263C12.4933 -0.267198 12.2316 0.184264 12.0742 0.676918L15.8843 1.89468C15.8661 1.95161 15.8366 2.0015 15.7999 2.04189L12.8396 -0.648263ZM12.0742 0.676918C11.9167 1.16966 11.8676 1.69065 11.9309 2.20457L15.9009 1.71604C15.9084 1.77656 15.9025 1.83767 15.8843 1.89468L12.0742 0.676918ZM11.9313 2.20765L12.1276 3.78291L16.0969 3.28822L15.9005 1.71296L11.9313 2.20765ZM13.793 1.56121C10.6573 2.0682 7.79947 3.65348 5.73216 6.04372L8.75757 8.66038C10.2038 6.98825 12.2132 5.86858 14.4314 5.50993L13.793 1.56121ZM5.73216 6.04372C3.66415 8.43478 2.52283 11.4754 2.51958 14.6246L6.51958 14.6288C6.52183 12.447 7.31208 10.3317 8.75757 8.66038L5.73216 6.04372ZM2.51958 14.6267V15.6983H6.51958V14.6267H2.51958ZM4.51958 13.6983H2.61087V17.6983H4.51958V13.6983ZM2.62229 13.6983C2.12454 13.6955 1.63443 13.8382 1.21418 14.1121L3.39828 17.4631C3.15856 17.6194 2.88055 17.6999 2.59944 17.6983L2.62229 13.6983ZM1.21418 14.1121C0.79353 14.3862 0.460045 14.781 0.261787 15.2501L3.94629 16.8072C3.8311 17.0797 3.63839 17.3066 3.39828 17.4631L1.21418 14.1121ZM0.261787 15.2501C0.0633575 15.7196 0.0111585 16.2387 0.113435 16.7396L4.03257 15.9394C4.09223 16.2316 4.06164 16.5342 3.94629 16.8072L0.261787 15.2501ZM0.113435 16.7396C0.215664 17.2403 0.466385 17.6947 0.827888 18.0469L3.61945 15.1821C3.82713 15.3845 3.97295 15.6474 4.03257 15.9394L0.113435 16.7396ZM0.821994 18.0412L3.00338 20.1844L5.80673 17.3311L3.62535 15.1879L0.821994 18.0412ZM17.008 1.58745C17.034 1.7991 17.0138 2.0135 16.9491 2.21576L13.139 0.997995C13.0279 1.3455 12.9933 1.71319 13.0379 2.07598L17.008 1.58745ZM16.9491 2.21576C16.8845 2.41793 16.7776 2.60167 16.6377 2.75563L13.6774 0.0654715C13.4343 0.332983 13.25 0.650589 13.139 0.997995L16.9491 2.21576ZM16.6377 2.75563C16.4979 2.90947 16.3285 3.02995 16.1421 3.11115L14.5445 -0.55597C14.2165 -0.413059 13.9204 -0.201932 13.6774 0.0654715L16.6377 2.75563ZM16.1421 3.11115C15.9558 3.19232 15.7554 3.23299 15.5541 3.23156L15.5825 -0.768336C15.2262 -0.770867 14.8725 -0.698846 14.5445 -0.55597L16.1421 3.11115ZM15.5683 3.23161H16.3863V-0.768387H15.5683V3.23161ZM16.4005 3.23156C16.1992 3.23299 15.9988 3.19232 15.8125 3.11115L17.4101 -0.55597C17.0821 -0.698846 16.7284 -0.770867 16.3721 -0.768336L16.4005 3.23156ZM15.8125 3.11115C15.6261 3.02995 15.4567 2.90948 15.3169 2.75563L18.2772 0.0654715C18.0342 -0.20194 17.7381 -0.413064 17.4101 -0.55597L15.8125 3.11115ZM15.3169 2.75563C15.177 2.60166 15.0701 2.41791 15.0055 2.21576L18.8156 0.997995C18.7046 0.650604 18.5203 0.332995 18.2772 0.0654715L15.3169 2.75563ZM15.0055 2.21576C14.9408 2.0135 14.9206 1.7991 14.9466 1.58745L18.9167 2.07598C18.9613 1.71319 18.9267 1.3455 18.8156 0.997995L15.0055 2.21576ZM14.9456 1.59588L14.7547 3.20329L18.7268 3.67495L18.9177 2.06754L14.9456 1.59588ZM16.9312 1.4482C16.3004 1.38789 15.6651 1.38789 15.0344 1.4482L15.4151 5.43004C15.7926 5.39394 16.1729 5.39394 16.5504 5.43004L16.9312 1.4482ZM17.2092 3.19002L17.0074 1.58261L13.0385 2.08082L13.2403 3.68823L17.2092 3.19002ZM7.61027 14.6267C7.61027 12.4687 8.48248 10.3917 10.0468 8.8548L7.24343 6.00152C4.92139 8.28293 3.61027 11.3848 3.61027 14.6267H7.61027ZM10.0468 8.8548C11.6123 7.3167 13.7429 6.44643 15.9719 6.44643V2.44643C12.7046 2.44643 9.56428 3.72128 7.24343 6.00152L10.0468 8.8548ZM15.9719 6.44643C18.2008 6.44643 20.3314 7.3167 21.8969 8.8548L24.7003 6.00152C22.3794 3.72128 19.2391 2.44643 15.9719 2.44643V6.44643ZM21.8969 8.8548C23.4612 10.3917 24.3334 12.4687 24.3334 14.6267H28.3334C28.3334 11.3848 27.0223 8.28293 24.7003 6.00152L21.8969 8.8548ZM24.3334 14.6267V15.6983H28.3334V14.6267H24.3334ZM26.3334 13.6983H5.61027V17.6983H26.3334V13.6983ZM7.61027 15.6983V14.6267H3.61027V15.6983H7.61027ZM26.6169 15.3433L25.5262 16.4149L28.3295 19.2681L29.4202 18.1965L26.6169 15.3433ZM26.9279 15.8415H5.01584V19.8415H26.9279V15.8415ZM6.41752 16.4149L5.32683 15.3433L2.52347 18.1965L3.61417 19.2681L6.41752 16.4149ZM3.92515 18.7699H28.0186V14.7699H3.92515V18.7699Z" fill="#FFBA08" mask="url(#path-1-inside-1_1778_309)"/>
<mask id="path-3-inside-2_1778_309" fill="white">
<path d="M10.5184 7.25403C8.72422 8.53617 7.45545 10.406 6.94092 12.5263C6.91785 12.5967 6.90985 12.671 6.91742 12.7445C6.92498 12.8181 6.94796 12.8893 6.9849 12.9537C7.02183 13.0181 7.07193 13.0743 7.13204 13.1187C7.19215 13.1632 7.26097 13.1949 7.33418 13.212C7.40738 13.229 7.48339 13.231 7.55741 13.2178C7.63143 13.2046 7.70188 13.1765 7.76431 13.1352C7.82674 13.094 7.87981 13.0405 7.92018 12.9781C7.96055 12.9157 7.98735 12.8458 7.99889 12.7728C8.45243 10.9005 9.57479 9.25018 11.1619 8.12203C11.2199 8.08051 11.269 8.02818 11.3064 7.96802C11.3439 7.90785 11.3689 7.84103 11.38 7.77138C11.3912 7.70172 11.3882 7.63059 11.3714 7.56205C11.3545 7.49351 11.3241 7.4289 11.2819 7.3719C11.2396 7.31491 11.1864 7.26665 11.1251 7.22988C11.0639 7.19311 10.9959 7.16856 10.925 7.15761C10.8541 7.14666 10.7817 7.14954 10.7119 7.16609C10.6422 7.18263 10.5764 7.21251 10.5184 7.25403ZM27.0915 20.5473C27.0462 20.4581 26.9766 20.3831 26.8904 20.3307C26.8042 20.2783 26.7048 20.2505 26.6034 20.2505C26.502 20.2505 26.4026 20.2783 26.3164 20.3307C26.2302 20.3831 26.1605 20.4581 26.1153 20.5473L24.8665 23.0281L22.0797 23.4246C21.9783 23.4381 21.8828 23.4795 21.8041 23.5439C21.7255 23.6083 21.6669 23.6931 21.635 23.7887C21.6032 23.8843 21.5993 23.9868 21.624 24.0844C21.6486 24.182 21.7007 24.2709 21.7743 24.3408L23.7921 26.275L23.3177 29.0023C23.2998 29.101 23.3105 29.2026 23.3486 29.2957C23.3866 29.3887 23.4504 29.4694 23.5328 29.5285C23.6152 29.5877 23.7128 29.623 23.8145 29.6303C23.9163 29.6377 24.0181 29.6169 24.1084 29.5702L26.6061 28.2789L29.0983 29.5702C29.1887 29.6169 29.2905 29.6377 29.3923 29.6303C29.494 29.623 29.5916 29.5877 29.674 29.5285C29.7564 29.4694 29.8202 29.3887 29.8582 29.2957C29.8963 29.2026 29.9069 29.101 29.8891 29.0023L29.4146 26.275L31.4324 24.3408C31.5061 24.2709 31.5582 24.182 31.5828 24.0844C31.6074 23.9868 31.6036 23.8843 31.5718 23.7887C31.5399 23.6931 31.4813 23.6083 31.4026 23.5439C31.324 23.4795 31.2285 23.4381 31.127 23.4246L28.3403 23.0281L27.0915 20.5473ZM28.4439 25.7017C28.3809 25.763 28.3341 25.8385 28.3075 25.9216C28.2809 26.0047 28.2753 26.0929 28.2912 26.1786L28.6294 28.1128L26.8788 27.1966C26.8006 27.1562 26.7135 27.1352 26.6252 27.1352C26.5369 27.1352 26.4498 27.1562 26.3716 27.1966L24.5992 28.1128L24.9374 26.1786C24.9533 26.0929 24.9477 26.0047 24.9211 25.9216C24.8945 25.8385 24.8476 25.763 24.7847 25.7017L23.3504 24.3301L25.33 24.0461C25.4168 24.0337 25.4994 24.001 25.5706 23.9506C25.6418 23.9003 25.6996 23.8338 25.739 23.7568L26.6279 21.994L27.4896 23.7353C27.529 23.8123 27.5868 23.8788 27.658 23.9292C27.7292 23.9796 27.8117 24.0123 27.8986 24.0247L29.8782 24.3086L28.4439 25.7017ZM2.52906 26.275L2.05461 29.0023C2.03676 29.101 2.04746 29.2026 2.08549 29.2957C2.12351 29.3887 2.18734 29.4694 2.26971 29.5285C2.35209 29.5877 2.4497 29.623 2.55147 29.6303C2.65323 29.6377 2.75505 29.6169 2.84536 29.5702L5.3376 28.2789L7.83529 29.5702C7.9256 29.6169 8.02742 29.6377 8.12919 29.6303C8.23095 29.623 8.32856 29.5877 8.41094 29.5285C8.49331 29.4694 8.55714 29.3887 8.59516 29.2957C8.63319 29.2026 8.64389 29.101 8.62604 29.0023L8.15159 26.275L10.1694 24.3408C10.243 24.2709 10.2951 24.182 10.3197 24.0844C10.3444 23.9868 10.3406 23.8843 10.3087 23.7887C10.2768 23.6931 10.2182 23.6083 10.1396 23.5439C10.0609 23.4795 9.96542 23.4381 9.86397 23.4246L7.07725 23.0281L5.82841 20.5473C5.78318 20.4581 5.71355 20.3831 5.62733 20.3307C5.54111 20.2783 5.44172 20.2505 5.34033 20.2505C5.23893 20.2505 5.13954 20.2783 5.05332 20.3307C4.9671 20.3831 4.89747 20.4581 4.85224 20.5473L3.6034 23.0281L0.816676 23.4246C0.715232 23.4381 0.619723 23.4795 0.541078 23.5439C0.462432 23.6083 0.403825 23.6931 0.371963 23.7887C0.3401 23.8843 0.336268 23.9868 0.360906 24.0844C0.385544 24.182 0.437657 24.2709 0.511281 24.3408L2.52906 26.275ZM4.04513 24.0461C4.13196 24.0337 4.21449 24.001 4.28569 23.9506C4.3569 23.9003 4.41468 23.8338 4.45414 23.7568L5.3376 21.994L6.22651 23.7353C6.26597 23.8123 6.32375 23.8788 6.39496 23.9292C6.46616 23.9796 6.54869 24.0123 6.63552 24.0247L8.61513 24.3086L7.18087 25.6803C7.11788 25.7416 7.07105 25.8171 7.04445 25.9002C7.01784 25.9832 7.01225 26.0715 7.02817 26.1572L7.36629 28.0914L5.61027 27.1966C5.53206 27.1562 5.44503 27.1352 5.35669 27.1352C5.26834 27.1352 5.18131 27.1562 5.1031 27.1966L3.31436 28.1128L3.65248 26.1786C3.6684 26.0929 3.66281 26.0047 3.6362 25.9216C3.6096 25.8385 3.56277 25.763 3.49978 25.7017L2.06552 24.3301L4.04513 24.0461ZM20.4982 23.4246L17.7061 23.0281L16.4627 20.5473C16.418 20.4567 16.3483 20.3803 16.2615 20.3269C16.1747 20.2734 16.0743 20.245 15.9719 20.245C15.8694 20.245 15.769 20.2734 15.6822 20.3269C15.5954 20.3803 15.5257 20.4567 15.481 20.5473L14.2377 23.0281L11.4455 23.4246C11.3445 23.439 11.2496 23.4809 11.1717 23.5456C11.0938 23.6104 11.0359 23.6953 11.0046 23.7908C10.9734 23.8862 10.97 23.9884 10.9949 24.0856C11.0198 24.1828 11.072 24.2712 11.1455 24.3408L13.1633 26.275L12.6998 29.0023C12.6812 29.1017 12.6916 29.2043 12.7298 29.2981C12.768 29.392 12.8325 29.4733 12.9157 29.5327C12.999 29.5921 13.0977 29.6272 13.2003 29.6338C13.303 29.6404 13.4055 29.6184 13.496 29.5702L15.9719 28.2789L18.4641 29.5702C18.5541 29.614 18.6546 29.6325 18.7545 29.6237C18.8545 29.6149 18.9501 29.5792 19.0307 29.5204C19.1113 29.4617 19.1739 29.3823 19.2115 29.2908C19.2492 29.1994 19.2604 29.0996 19.2439 29.0023L18.764 26.275L20.7818 24.3408C20.8551 24.2723 20.9075 24.1852 20.9333 24.0891C20.959 23.993 20.9571 23.8918 20.9276 23.7967C20.8982 23.7017 20.8425 23.6165 20.7667 23.5508C20.6908 23.4851 20.5979 23.4414 20.4982 23.4246ZM17.8151 25.7017C17.7512 25.7625 17.7033 25.8377 17.6758 25.9209C17.6482 26.004 17.6417 26.0925 17.657 26.1786L17.9951 28.1128L16.2282 27.1966C16.1493 27.1553 16.0612 27.1337 15.9719 27.1337C15.8825 27.1337 15.7944 27.1553 15.7155 27.1966L13.9486 28.1128L14.2867 26.1786C14.302 26.0925 14.2955 26.004 14.268 25.9209C14.2404 25.8377 14.1925 25.7625 14.1286 25.7017L12.6998 24.3301L14.6794 24.0461C14.7672 24.0346 14.8508 24.0022 14.923 23.9518C14.9952 23.9014 15.0539 23.8344 15.0938 23.7568L15.9719 21.994L16.8553 23.7353C16.8953 23.813 16.9539 23.8799 17.0261 23.9304C17.0983 23.9808 17.182 24.0131 17.2698 24.0247L19.2494 24.3086L17.8151 25.7017Z"/>
</mask>
<path d="M10.5184 7.25403C8.72422 8.53617 7.45545 10.406 6.94092 12.5263C6.91785 12.5967 6.90985 12.671 6.91742 12.7445C6.92498 12.8181 6.94796 12.8893 6.9849 12.9537C7.02183 13.0181 7.07193 13.0743 7.13204 13.1187C7.19215 13.1632 7.26097 13.1949 7.33418 13.212C7.40738 13.229 7.48339 13.231 7.55741 13.2178C7.63143 13.2046 7.70188 13.1765 7.76431 13.1352C7.82674 13.094 7.87981 13.0405 7.92018 12.9781C7.96055 12.9157 7.98735 12.8458 7.99889 12.7728C8.45243 10.9005 9.57479 9.25018 11.1619 8.12203C11.2199 8.08051 11.269 8.02818 11.3064 7.96802C11.3439 7.90785 11.3689 7.84103 11.38 7.77138C11.3912 7.70172 11.3882 7.63059 11.3714 7.56205C11.3545 7.49351 11.3241 7.4289 11.2819 7.3719C11.2396 7.31491 11.1864 7.26665 11.1251 7.22988C11.0639 7.19311 10.9959 7.16856 10.925 7.15761C10.8541 7.14666 10.7817 7.14954 10.7119 7.16609C10.6422 7.18263 10.5764 7.21251 10.5184 7.25403ZM27.0915 20.5473C27.0462 20.4581 26.9766 20.3831 26.8904 20.3307C26.8042 20.2783 26.7048 20.2505 26.6034 20.2505C26.502 20.2505 26.4026 20.2783 26.3164 20.3307C26.2302 20.3831 26.1605 20.4581 26.1153 20.5473L24.8665 23.0281L22.0797 23.4246C21.9783 23.4381 21.8828 23.4795 21.8041 23.5439C21.7255 23.6083 21.6669 23.6931 21.635 23.7887C21.6032 23.8843 21.5993 23.9868 21.624 24.0844C21.6486 24.182 21.7007 24.2709 21.7743 24.3408L23.7921 26.275L23.3177 29.0023C23.2998 29.101 23.3105 29.2026 23.3486 29.2957C23.3866 29.3887 23.4504 29.4694 23.5328 29.5285C23.6152 29.5877 23.7128 29.623 23.8145 29.6303C23.9163 29.6377 24.0181 29.6169 24.1084 29.5702L26.6061 28.2789L29.0983 29.5702C29.1887 29.6169 29.2905 29.6377 29.3923 29.6303C29.494 29.623 29.5916 29.5877 29.674 29.5285C29.7564 29.4694 29.8202 29.3887 29.8582 29.2957C29.8963 29.2026 29.9069 29.101 29.8891 29.0023L29.4146 26.275L31.4324 24.3408C31.5061 24.2709 31.5582 24.182 31.5828 24.0844C31.6074 23.9868 31.6036 23.8843 31.5718 23.7887C31.5399 23.6931 31.4813 23.6083 31.4026 23.5439C31.324 23.4795 31.2285 23.4381 31.127 23.4246L28.3403 23.0281L27.0915 20.5473ZM28.4439 25.7017C28.3809 25.763 28.3341 25.8385 28.3075 25.9216C28.2809 26.0047 28.2753 26.0929 28.2912 26.1786L28.6294 28.1128L26.8788 27.1966C26.8006 27.1562 26.7135 27.1352 26.6252 27.1352C26.5369 27.1352 26.4498 27.1562 26.3716 27.1966L24.5992 28.1128L24.9374 26.1786C24.9533 26.0929 24.9477 26.0047 24.9211 25.9216C24.8945 25.8385 24.8476 25.763 24.7847 25.7017L23.3504 24.3301L25.33 24.0461C25.4168 24.0337 25.4994 24.001 25.5706 23.9506C25.6418 23.9003 25.6996 23.8338 25.739 23.7568L26.6279 21.994L27.4896 23.7353C27.529 23.8123 27.5868 23.8788 27.658 23.9292C27.7292 23.9796 27.8117 24.0123 27.8986 24.0247L29.8782 24.3086L28.4439 25.7017ZM2.52906 26.275L2.05461 29.0023C2.03676 29.101 2.04746 29.2026 2.08549 29.2957C2.12351 29.3887 2.18734 29.4694 2.26971 29.5285C2.35209 29.5877 2.4497 29.623 2.55147 29.6303C2.65323 29.6377 2.75505 29.6169 2.84536 29.5702L5.3376 28.2789L7.83529 29.5702C7.9256 29.6169 8.02742 29.6377 8.12919 29.6303C8.23095 29.623 8.32856 29.5877 8.41094 29.5285C8.49331 29.4694 8.55714 29.3887 8.59516 29.2957C8.63319 29.2026 8.64389 29.101 8.62604 29.0023L8.15159 26.275L10.1694 24.3408C10.243 24.2709 10.2951 24.182 10.3197 24.0844C10.3444 23.9868 10.3406 23.8843 10.3087 23.7887C10.2768 23.6931 10.2182 23.6083 10.1396 23.5439C10.0609 23.4795 9.96542 23.4381 9.86397 23.4246L7.07725 23.0281L5.82841 20.5473C5.78318 20.4581 5.71355 20.3831 5.62733 20.3307C5.54111 20.2783 5.44172 20.2505 5.34033 20.2505C5.23893 20.2505 5.13954 20.2783 5.05332 20.3307C4.9671 20.3831 4.89747 20.4581 4.85224 20.5473L3.6034 23.0281L0.816676 23.4246C0.715232 23.4381 0.619723 23.4795 0.541078 23.5439C0.462432 23.6083 0.403825 23.6931 0.371963 23.7887C0.3401 23.8843 0.336268 23.9868 0.360906 24.0844C0.385544 24.182 0.437657 24.2709 0.511281 24.3408L2.52906 26.275ZM4.04513 24.0461C4.13196 24.0337 4.21449 24.001 4.28569 23.9506C4.3569 23.9003 4.41468 23.8338 4.45414 23.7568L5.3376 21.994L6.22651 23.7353C6.26597 23.8123 6.32375 23.8788 6.39496 23.9292C6.46616 23.9796 6.54869 24.0123 6.63552 24.0247L8.61513 24.3086L7.18087 25.6803C7.11788 25.7416 7.07105 25.8171 7.04445 25.9002C7.01784 25.9832 7.01225 26.0715 7.02817 26.1572L7.36629 28.0914L5.61027 27.1966C5.53206 27.1562 5.44503 27.1352 5.35669 27.1352C5.26834 27.1352 5.18131 27.1562 5.1031 27.1966L3.31436 28.1128L3.65248 26.1786C3.6684 26.0929 3.66281 26.0047 3.6362 25.9216C3.6096 25.8385 3.56277 25.763 3.49978 25.7017L2.06552 24.3301L4.04513 24.0461ZM20.4982 23.4246L17.7061 23.0281L16.4627 20.5473C16.418 20.4567 16.3483 20.3803 16.2615 20.3269C16.1747 20.2734 16.0743 20.245 15.9719 20.245C15.8694 20.245 15.769 20.2734 15.6822 20.3269C15.5954 20.3803 15.5257 20.4567 15.481 20.5473L14.2377 23.0281L11.4455 23.4246C11.3445 23.439 11.2496 23.4809 11.1717 23.5456C11.0938 23.6104 11.0359 23.6953 11.0046 23.7908C10.9734 23.8862 10.97 23.9884 10.9949 24.0856C11.0198 24.1828 11.072 24.2712 11.1455 24.3408L13.1633 26.275L12.6998 29.0023C12.6812 29.1017 12.6916 29.2043 12.7298 29.2981C12.768 29.392 12.8325 29.4733 12.9157 29.5327C12.999 29.5921 13.0977 29.6272 13.2003 29.6338C13.303 29.6404 13.4055 29.6184 13.496 29.5702L15.9719 28.2789L18.4641 29.5702C18.5541 29.614 18.6546 29.6325 18.7545 29.6237C18.8545 29.6149 18.9501 29.5792 19.0307 29.5204C19.1113 29.4617 19.1739 29.3823 19.2115 29.2908C19.2492 29.1994 19.2604 29.0996 19.2439 29.0023L18.764 26.275L20.7818 24.3408C20.8551 24.2723 20.9075 24.1852 20.9333 24.0891C20.959 23.993 20.9571 23.8918 20.9276 23.7967C20.8982 23.7017 20.8425 23.6165 20.7667 23.5508C20.6908 23.4851 20.5979 23.4414 20.4982 23.4246ZM17.8151 25.7017C17.7512 25.7625 17.7033 25.8377 17.6758 25.9209C17.6482 26.004 17.6417 26.0925 17.657 26.1786L17.9951 28.1128L16.2282 27.1966C16.1493 27.1553 16.0612 27.1337 15.9719 27.1337C15.8825 27.1337 15.7944 27.1553 15.7155 27.1966L13.9486 28.1128L14.2867 26.1786C14.302 26.0925 14.2955 26.004 14.268 25.9209C14.2404 25.8377 14.1925 25.7625 14.1286 25.7017L12.6998 24.3301L14.6794 24.0461C14.7672 24.0346 14.8508 24.0022 14.923 23.9518C14.9952 23.9014 15.0539 23.8344 15.0938 23.7568L15.9719 21.994L16.8553 23.7353C16.8953 23.813 16.9539 23.8799 17.0261 23.9304C17.0983 23.9808 17.182 24.0131 17.2698 24.0247L19.2494 24.3086L17.8151 25.7017Z" fill="#FFBA08" stroke="#FFBA08" stroke-width="4" mask="url(#path-3-inside-2_1778_309)"/>
</svg>
